<mxfile host="app.diagrams.net" modified="2020-12-16T14:26:06.166Z" agent="5.0 (Macintosh; Intel Mac OS X 10_15_7) AppleWebKit/537.36 (KHTML, like Gecko) Chrome/87.0.4280.88 Safari/537.36" etag="4ZN7e_SadqFeslwaEf7a" version="14.0.4" type="github">
  <diagram id="kgpKYQtTHZ0yAKxKKP6v" name="Page-1">
    <mxGraphModel dx="784" dy="1621" grid="1" gridSize="10" guides="1" tooltips="1" connect="1" arrows="1" fold="1" page="1" pageScale="1" pageWidth="850" pageHeight="1100" math="0" shadow="0">
      <root>
        <mxCell id="0" />
        <mxCell id="1" parent="0" />
        <mxCell id="V1X-ZcGvXSDpdBAK1YBo-29" value="git repository" style="shape=image;html=1;verticalAlign=top;verticalLabelPosition=bottom;labelBackgroundColor=#ffffff;imageAspect=0;aspect=fixed;image=https://cdn4.iconfinder.com/data/icons/iconsimple-logotypes/512/github-128.png" vertex="1" parent="1">
          <mxGeometry x="280" y="-410" width="68" height="68" as="geometry" />
        </mxCell>
        <mxCell id="V1X-ZcGvXSDpdBAK1YBo-30" value="" style="html=1;points=[];perimeter=orthogonalPerimeter;" vertex="1" parent="1">
          <mxGeometry x="510" y="-250" width="10" height="140" as="geometry" />
        </mxCell>
        <mxCell id="V1X-ZcGvXSDpdBAK1YBo-31" value="merge / push" style="html=1;verticalAlign=bottom;startArrow=oval;endArrow=block;startSize=8;exitX=1;exitY=0.75;exitDx=0;exitDy=0;" edge="1" target="V1X-ZcGvXSDpdBAK1YBo-30" parent="1" source="V1X-ZcGvXSDpdBAK1YBo-35">
          <mxGeometry relative="1" as="geometry">
            <mxPoint x="440" y="-370" as="sourcePoint" />
          </mxGeometry>
        </mxCell>
        <mxCell id="V1X-ZcGvXSDpdBAK1YBo-34" value="Create Pull Request" style="edgeStyle=orthogonalEdgeStyle;rounded=0;orthogonalLoop=1;jettySize=auto;html=1;entryX=0;entryY=0.5;entryDx=0;entryDy=0;" edge="1" parent="1" source="V1X-ZcGvXSDpdBAK1YBo-32" target="V1X-ZcGvXSDpdBAK1YBo-29">
          <mxGeometry relative="1" as="geometry">
            <mxPoint x="210" y="-376" as="targetPoint" />
          </mxGeometry>
        </mxCell>
        <mxCell id="V1X-ZcGvXSDpdBAK1YBo-32" value="Developer" style="points=[[0.35,0,0],[0.98,0.51,0],[1,0.71,0],[0.67,1,0],[0,0.795,0],[0,0.65,0]];verticalLabelPosition=bottom;html=1;verticalAlign=top;aspect=fixed;align=center;pointerEvents=1;shape=mxgraph.cisco19.user;fillColor=#005073;strokeColor=none;" vertex="1" parent="1">
          <mxGeometry x="80" y="-401" width="50" height="50" as="geometry" />
        </mxCell>
        <mxCell id="V1X-ZcGvXSDpdBAK1YBo-35" value="Reviewer" style="shape=image;html=1;verticalAlign=top;verticalLabelPosition=bottom;labelBackgroundColor=#ffffff;imageAspect=0;aspect=fixed;image=https://cdn1.iconfinder.com/data/icons/windows8_icons_iconpharm/26/reviewer.png" vertex="1" parent="1">
          <mxGeometry x="285.5" y="-280" width="57" height="57" as="geometry" />
        </mxCell>
        <mxCell id="V1X-ZcGvXSDpdBAK1YBo-36" value="" style="endArrow=classic;startArrow=classic;html=1;entryX=0.5;entryY=1;entryDx=0;entryDy=0;exitX=0.5;exitY=0;exitDx=0;exitDy=0;" edge="1" parent="1" source="V1X-ZcGvXSDpdBAK1YBo-35" target="V1X-ZcGvXSDpdBAK1YBo-29">
          <mxGeometry width="50" height="50" relative="1" as="geometry">
            <mxPoint x="210" y="-200" as="sourcePoint" />
            <mxPoint x="260" y="-250" as="targetPoint" />
          </mxGeometry>
        </mxCell>
        <mxCell id="V1X-ZcGvXSDpdBAK1YBo-37" value="github actions" style="rounded=1;align=left;fillColor=#F1F2F4;strokeColor=none;html=1;fontColor=#596780;fontSize=12;spacingLeft=26;" vertex="1" parent="1">
          <mxGeometry x="455" y="-300" width="120" height="33" as="geometry" />
        </mxCell>
        <mxCell id="V1X-ZcGvXSDpdBAK1YBo-38" value="" style="shape=mxgraph.mscae.intune.subscription_portal;fillColor=#596780;strokeColor=none;fontColor=#ffffff;labelPosition=right;verticalLabelPosition=middle;align=left;verticalAlign=middle;html=1;spacingLeft=5" vertex="1" parent="V1X-ZcGvXSDpdBAK1YBo-37">
          <mxGeometry y="0.5" width="12" height="12" relative="1" as="geometry">
            <mxPoint x="10" y="-6" as="offset" />
          </mxGeometry>
        </mxCell>
        <mxCell id="V1X-ZcGvXSDpdBAK1YBo-39" value="update new version" style="text;html=1;strokeColor=none;fillColor=none;align=center;verticalAlign=middle;whiteSpace=wrap;rounded=0;" vertex="1" parent="1">
          <mxGeometry x="525" y="-243" width="135" height="20" as="geometry" />
        </mxCell>
        <mxCell id="V1X-ZcGvXSDpdBAK1YBo-40" value="build docker image" style="text;html=1;strokeColor=none;fillColor=none;align=center;verticalAlign=middle;whiteSpace=wrap;rounded=0;" vertex="1" parent="1">
          <mxGeometry x="525" y="-190" width="125" height="20" as="geometry" />
        </mxCell>
        <mxCell id="V1X-ZcGvXSDpdBAK1YBo-42" value="" style="aspect=fixed;html=1;points=[];align=center;image;fontSize=12;image=img/lib/mscae/Docker.svg;" vertex="1" parent="1">
          <mxGeometry x="670" y="-196" width="50" height="41" as="geometry" />
        </mxCell>
        <mxCell id="V1X-ZcGvXSDpdBAK1YBo-43" value="" style="html=1;points=[];perimeter=orthogonalPerimeter;" vertex="1" parent="1">
          <mxGeometry x="690" y="-130" width="10" height="80" as="geometry" />
        </mxCell>
        <mxCell id="V1X-ZcGvXSDpdBAK1YBo-44" value="upload docker image" style="html=1;verticalAlign=bottom;startArrow=oval;endArrow=block;startSize=8;exitX=0.973;exitY=0.879;exitDx=0;exitDy=0;exitPerimeter=0;" edge="1" target="V1X-ZcGvXSDpdBAK1YBo-43" parent="1" source="V1X-ZcGvXSDpdBAK1YBo-30">
          <mxGeometry relative="1" as="geometry">
            <mxPoint x="630" y="-130" as="sourcePoint" />
          </mxGeometry>
        </mxCell>
      </root>
    </mxGraphModel>
  </diagram>
</mxfile>
